<svg width="150" height="150" viewBox="0 0 150 150" fill="none" xmlns="http://www.w3.org/2000/svg">
<path d="M108.144 59.525L128.031 79.4125C131.258 82.5966 133.824 86.3877 135.58 90.5674C137.336 94.7471 138.247 99.2329 138.263 103.766C138.278 108.3 137.396 112.792 135.668 116.983C133.94 121.174 131.4 124.983 128.195 128.188C124.989 131.394 121.181 133.934 116.989 135.662C112.798 137.39 108.306 138.272 103.773 138.256C99.2391 138.241 94.7533 137.329 90.5736 135.573C86.3939 133.817 82.6028 131.252 79.4187 128.025L72.7937 121.4C71.8979 120.536 71.1832 119.501 70.6913 118.358C70.1994 117.214 69.9403 115.984 69.9289 114.739C69.9175 113.495 70.1541 112.26 70.6249 111.108C71.0958 109.955 71.7914 108.908 72.6712 108.028C73.551 107.147 74.5974 106.45 75.7494 105.978C76.9013 105.506 78.1357 105.269 79.3805 105.279C80.6253 105.289 81.8556 105.547 82.9996 106.038C84.1436 106.529 85.1784 107.242 86.0437 108.137L92.6812 114.769C95.6162 117.677 99.5839 119.305 103.716 119.295C107.848 119.286 111.808 117.64 114.73 114.717C117.651 111.795 119.296 107.834 119.305 103.702C119.313 99.5702 117.684 95.6029 114.775 92.6687L94.8874 72.7812C92.7379 70.6307 90.0076 69.1541 87.0312 68.5325C84.0549 67.9108 80.9618 68.171 78.1312 69.2812C77.1228 69.6812 76.177 70.0896 75.2937 70.5062L72.3937 71.8625C68.5187 73.6125 65.5374 74.3625 61.7437 70.575C56.2937 65.125 57.7062 60.0937 64.3499 55.5125C70.9681 50.9585 78.9723 48.8663 86.9724 49.5993C94.9725 50.3323 102.463 53.8441 108.144 59.525ZM70.5812 21.9625L77.2062 28.5875C78.9148 30.3548 79.8608 32.7225 79.8406 35.1806C79.8204 37.6387 78.8356 39.9906 77.0982 41.7296C75.3608 43.4686 73.0099 44.4557 70.5518 44.4782C68.0937 44.5007 65.7251 43.5569 63.9562 41.85L57.3249 35.225C55.884 33.7322 54.1602 32.5414 52.2541 31.722C50.348 30.9025 48.2978 30.4709 46.2232 30.4523C44.1485 30.4337 42.0909 30.8285 40.1704 31.6136C38.25 32.3987 36.5051 33.5584 35.0376 35.025C33.5701 36.4917 32.4094 38.2359 31.6232 40.1559C30.837 42.076 30.4411 44.1333 30.4586 46.208C30.476 48.2827 30.9064 50.3331 31.7248 52.2397C32.5431 54.1462 33.733 55.8707 35.2249 57.3125L55.1124 77.2C57.262 79.3505 59.9923 80.827 62.9686 81.4487C65.945 82.0704 69.038 81.8102 71.8687 80.7C72.877 80.3 73.8228 79.8916 74.7062 79.475L77.6062 78.1187C81.4812 76.3687 84.4687 75.6187 88.2562 79.4062C93.7062 84.8562 92.2937 89.8875 85.6499 94.4687C79.0317 99.0227 71.0276 101.115 63.0274 100.382C55.0273 99.6489 47.5366 96.1371 41.8562 90.4562L21.9687 70.5687C18.7415 67.3846 16.1762 63.5935 14.4202 59.4138C12.6643 55.2341 11.7524 50.7483 11.7373 46.2148C11.7221 41.6812 12.6038 37.1895 14.3317 32.9981C16.0596 28.8067 18.5995 24.9985 21.8053 21.7928C25.011 18.5871 28.8192 16.0472 33.0105 14.3193C37.2019 12.5914 41.6937 11.7096 46.2272 11.7248C50.7608 11.74 55.2465 12.6518 59.4262 14.4078C63.6059 16.1637 67.397 18.7353 70.5812 21.9625Z" fill="black"/>
</svg>
