<svg width="150" height="100" viewBox="0 0 150 100" fill="none" xmlns="http://www.w3.org/2000/svg">
<path d="M97.2656 98.3725L78.0599 53.1251C76.9748 55.2518 73.5352 61.8816 67.7409 73.0144C61.9466 84.1472 57.6389 92.5999 54.8177 98.3725C54.7743 98.4159 54.1775 98.4267 53.0273 98.405C51.8772 98.3833 51.3021 98.3508 51.3021 98.3074C47.7431 89.9306 42.1983 77.1919 34.668 60.0912C27.1376 42.9905 21.5061 30.0565 17.7734 21.2891C16.862 19.119 15.4188 16.7861 13.444 14.2904C11.4692 11.7948 9.22309 9.6138 6.70573 7.74748C4.18837 5.88116 1.97483 4.948 0.0651042 4.948C0.0651042 4.73098 0.0542535 4.21015 0.0325521 3.3855C0.0108507 2.56085 0 1.97491 0 1.62769H37.9557V4.88289C36.263 4.9697 34.5378 5.31692 32.7799 5.92456C31.0221 6.5322 29.579 7.46536 28.4505 8.72404C27.322 9.98272 27.105 11.3716 27.7995 12.8907C28.928 15.4515 33.6263 26.2805 41.8945 45.3777C50.1628 64.4749 55.2734 76.1937 57.2266 80.5339C58.572 77.8864 61.6102 72.1029 66.3411 63.1837C71.072 54.2644 73.9149 48.8933 74.8698 47.0704C74.0451 45.3777 71.3108 39.2796 66.6667 28.7761C62.0226 18.2727 59.0712 11.8707 57.8125 9.57039C56.1632 6.5756 51.8012 5.0348 44.7266 4.948V1.69279L78.125 1.75789V4.81779C75.5208 4.9046 73.4918 5.44713 72.0378 6.44539C70.5838 7.44366 70.3125 8.94105 71.224 10.9376C72.6562 13.9758 74.5443 18.0882 76.888 23.2748C79.2318 28.4615 81.0981 32.5305 82.487 35.4819C87.2613 26.1937 91.0156 18.3161 93.75 11.849C94.7917 9.46189 94.5746 7.73663 93.099 6.67326C91.6233 5.60989 88.8238 5.0348 84.7005 4.948C84.7439 4.64418 84.7656 4.10164 84.7656 3.32039V1.75789C87.5434 1.75789 91.2435 1.74704 95.8659 1.72534C100.488 1.70364 104.395 1.68194 107.585 1.66024C110.775 1.63854 112.782 1.62769 113.607 1.62769V4.81779C110.916 4.9046 108.333 5.62074 105.859 6.96623C103.385 8.31171 101.432 10.0695 100 12.2397L86.1328 41.0157C86.697 42.448 89.464 48.7414 94.4336 59.8959C99.4032 71.0504 102.04 76.9966 102.344 77.7345L131.055 11.5235C130.447 9.87421 129.373 8.51788 127.832 7.45451C126.291 6.39114 124.881 5.70755 123.6 5.40373C122.32 5.09991 121.115 4.9263 119.987 4.88289V1.62769L149.935 1.8881L150 2.01831L149.935 4.88289C143.902 5.0565 139.54 8.20321 136.849 14.323C114.019 67.1008 101.888 95.1173 100.456 98.3725H97.2656Z" fill="black"/>
</svg>
