<svg width="150" height="150" viewBox="0 0 150 150" fill="none" xmlns="http://www.w3.org/2000/svg">
<path d="M133.071 45.6374C132.386 43.0584 131.035 40.7045 129.155 38.8116C127.274 36.9188 124.929 35.5533 122.354 34.852C112.902 32.302 74.9999 32.302 74.9999 32.302C74.9999 32.302 37.0978 32.302 27.6458 34.852C25.0711 35.5533 22.726 36.9188 20.8452 38.8116C18.9644 40.7045 17.6139 43.0584 16.9291 45.6374C14.3958 55.1499 14.3958 74.9999 14.3958 74.9999C14.3958 74.9999 14.3958 94.8499 16.9291 104.364C17.6139 106.944 18.9644 109.297 20.8452 111.19C22.726 113.083 25.0711 114.449 27.6458 115.15C37.0978 117.698 74.9999 117.698 74.9999 117.698C74.9999 117.698 112.902 117.698 122.354 115.15C124.929 114.449 127.274 113.083 129.155 111.19C131.035 109.297 132.386 106.944 133.071 104.364C135.604 94.8499 135.604 74.9999 135.604 74.9999C135.604 74.9999 135.604 55.1499 133.071 45.6374Z" fill="#EA5A47"/>
<path d="M62.6042 93.0209L94.2834 75.0001L62.6042 56.9792V93.0209Z" fill="white"/>
<path d="M133.071 45.6374C132.386 43.0584 131.035 40.7045 129.155 38.8116C127.274 36.9188 124.929 35.5533 122.354 34.852C112.902 32.302 74.9999 32.302 74.9999 32.302C74.9999 32.302 37.0978 32.302 27.6458 34.852C25.0711 35.5533 22.726 36.9188 20.8452 38.8116C18.9644 40.7045 17.6139 43.0584 16.9291 45.6374C14.3958 55.1499 14.3958 74.9999 14.3958 74.9999C14.3958 74.9999 14.3958 94.8499 16.9291 104.364C17.6139 106.944 18.9644 109.297 20.8452 111.19C22.726 113.083 25.0711 114.449 27.6458 115.15C37.0978 117.698 74.9999 117.698 74.9999 117.698C74.9999 117.698 112.902 117.698 122.354 115.15C124.929 114.449 127.274 113.083 129.155 111.19C131.035 109.297 132.386 106.944 133.071 104.364C135.604 94.8499 135.604 74.9999 135.604 74.9999C135.604 74.9999 135.604 55.1499 133.071 45.6374Z" stroke="black" stroke-width="0.5" stroke-miterlimit="10"/>
<path d="M62.604 93.0207L94.2832 74.9998L62.604 56.979V93.0207Z" stroke="black" stroke-width="0.5" stroke-miterlimit="10" stroke-linecap="round" stroke-linejoin="round"/>
</svg>
