<svg width="150" height="150" viewBox="0 0 150 150" fill="none" xmlns="http://www.w3.org/2000/svg">
<path d="M135.938 3.51568H14.0625C11.2972 3.48754 8.63375 4.55753 6.65647 6.49087C4.67919 8.42421 3.54962 11.063 3.51562 13.8282V136.195C3.55577 138.956 4.68804 141.589 6.66465 143.518C8.64126 145.446 11.3012 146.513 14.0625 146.484H135.938C138.703 146.506 141.365 145.433 143.341 143.498C145.317 141.564 146.447 138.925 146.484 136.16V13.793C146.435 11.0359 145.3 8.40974 143.325 6.48528C141.35 4.56081 138.695 3.49362 135.938 3.51568Z" fill="#0076B2"/>
<path d="M24.6797 57.1055H45.9023V125.391H24.6797V57.1055ZM35.2969 23.1211C37.731 23.1211 40.1105 23.843 42.1342 25.1956C44.158 26.5482 45.7351 28.4706 46.666 30.7197C47.597 32.9688 47.84 35.4434 47.3643 37.8306C46.8885 40.2178 45.7155 42.4103 43.9935 44.1307C42.2714 45.851 40.0779 47.022 37.6902 47.4955C35.3026 47.9689 32.8281 47.7236 30.58 46.7905C28.3318 45.8574 26.4109 44.2784 25.0602 42.2534C23.7096 40.2283 22.9899 37.8482 22.9922 35.4141C22.9953 32.1527 24.2931 29.026 26.6003 26.7209C28.9075 24.4159 32.0355 23.1211 35.2969 23.1211ZM59.2148 57.1055H79.5586V66.4805H79.8398C82.6758 61.1133 89.5899 55.4531 99.9141 55.4531C121.406 55.4063 125.391 69.5508 125.391 87.8906V125.391H104.168V92.168C104.168 84.2578 104.027 74.0742 93.1406 74.0742C82.2539 74.0742 80.4024 82.6992 80.4024 91.6523V125.391H59.2148V57.1055Z" fill="white"/>
</svg>
