<svg width="150" height="150" viewBox="0 0 150 150" fill="none" xmlns="http://www.w3.org/2000/svg">
<path d="M136.699 5.66016H13.3125C9.08623 5.66016 5.66016 9.08623 5.66016 13.3125V136.699C5.66016 140.925 9.08623 144.352 13.3125 144.352H136.699C140.925 144.352 144.352 140.925 144.352 136.699V13.3125C144.352 9.08623 140.925 5.66016 136.699 5.66016Z" fill="#3D5A98"/>
<path d="M101.344 144.34V90.6328H119.367L122.063 69.7031H101.344V56.3437C101.344 50.2851 103.031 46.1484 111.715 46.1484H122.801V27.3984C117.432 26.84 112.038 26.574 106.641 26.6016C90.6797 26.6016 79.6875 36.3281 79.6875 54.2695V69.7031H61.6641V90.6328H79.6875V144.34H101.344Z" fill="white"/>
</svg>
