<?xml version="1.0" standalone="no"?>
<!DOCTYPE svg PUBLIC "-//W3C//DTD SVG 20010904//EN"
 "http://www.w3.org/TR/2001/REC-SVG-20010904/DTD/svg10.dtd">
<svg version="1.0" xmlns="http://www.w3.org/2000/svg"
 width="32.000000pt" height="32.000000pt" viewBox="0 0 32.000000 32.000000"
 preserveAspectRatio="xMidYMid meet">

<g transform="translate(0.000000,32.000000) scale(0.100000,-0.100000)"
fill="#000000" stroke="none">
<path d="M7 313 c-11 -10 -8 -163 3 -163 5 0 13 8 19 17 17 32 25 4 13 -44
-10 -34 -10 -49 -2 -57 15 -14 66 45 76 86 9 43 19 24 19 -35 0 -49 1 -52 24
-49 42 4 50 18 39 67 -7 34 -6 58 6 99 9 30 21 58 26 61 6 3 10 10 10 16 0 10
-223 13 -233 2z"/>
<path d="M268 293 c-15 -16 -34 -45 -42 -65 -16 -38 -22 -128 -8 -127 26 1 94
127 96 176 1 46 -13 51 -46 16z"/>
<path d="M304 178 c-4 -13 -20 -42 -35 -65 -23 -33 -26 -42 -14 -47 8 -3 26
-1 40 4 23 9 25 15 25 70 0 64 -4 74 -16 38z"/>
<path d="M11 116 c-7 -8 -11 -36 -9 -63 l3 -48 155 0 c141 0 155 2 158 18 3
15 -1 17 -22 11 -16 -4 -35 -1 -49 9 -20 13 -27 13 -48 1 -36 -20 -48 -17 -66
15 l-17 28 -24 -28 c-13 -16 -30 -29 -37 -29 -17 0 -39 54 -32 80 6 24 4 25
-12 6z"/>
</g>
</svg>
