<svg width="150" height="150" viewBox="0 0 150 150" fill="none" xmlns="http://www.w3.org/2000/svg">
<path d="M75 12.5C66.7924 12.5 58.6651 14.1166 51.0823 17.2575C43.4994 20.3984 36.6095 25.0022 30.8058 30.8058C19.0848 42.5269 12.5 58.424 12.5 75C12.5 102.625 30.4375 126.062 55.25 134.375C58.375 134.875 59.375 132.938 59.375 131.25V120.687C42.0625 124.437 38.375 112.312 38.375 112.312C35.5 105.062 31.4375 103.125 31.4375 103.125C25.75 99.25 31.875 99.375 31.875 99.375C38.125 99.8125 41.4375 105.813 41.4375 105.813C46.875 115.313 56.0625 112.5 59.625 111C60.1875 106.938 61.8125 104.188 63.5625 102.625C49.6875 101.063 35.125 95.6875 35.125 71.875C35.125 64.9375 37.5 59.375 41.5625 54.9375C40.9375 53.375 38.75 46.875 42.1875 38.4375C42.1875 38.4375 47.4375 36.75 59.375 44.8125C64.3125 43.4375 69.6875 42.75 75 42.75C80.3125 42.75 85.6875 43.4375 90.625 44.8125C102.562 36.75 107.812 38.4375 107.812 38.4375C111.25 46.875 109.063 53.375 108.438 54.9375C112.5 59.375 114.875 64.9375 114.875 71.875C114.875 95.75 100.25 101 86.3125 102.562C88.5625 104.5 90.625 108.313 90.625 114.125V131.25C90.625 132.938 91.625 134.938 94.8125 134.375C119.625 126 137.5 102.625 137.5 75C137.5 66.7924 135.883 58.6651 132.742 51.0823C129.602 43.4994 124.998 36.6095 119.194 30.8058C113.391 25.0022 106.501 20.3984 98.9177 17.2575C91.3349 14.1166 83.2076 12.5 75 12.5Z" fill="black"/>
</svg>
