<svg width="150" height="150" viewBox="0 0 150 150" fill="none" xmlns="http://www.w3.org/2000/svg">
<path d="M52.2538 4.93359C37.2665 10.1328 24.3414 20.0012 15.3772 33.0891C6.41287 46.177 1.88185 61.7946 2.44963 77.648C3.01742 93.5014 8.65408 108.755 18.5317 121.168C28.4093 133.581 42.0072 142.5 57.328 146.613C69.749 149.818 82.7625 149.959 95.2499 147.023C106.562 144.482 117.021 139.047 125.601 131.25C134.532 122.887 141.014 112.248 144.351 100.477C147.979 87.6758 148.624 74.214 146.238 61.125H76.4882V90.0586H116.883C116.075 94.6733 114.345 99.0777 111.796 103.008C109.247 106.939 105.931 110.315 102.047 112.934C97.1142 116.196 91.5538 118.392 85.7226 119.379C79.8743 120.466 73.8756 120.466 68.0273 119.379C62.0998 118.153 56.4925 115.707 51.5624 112.195C43.6423 106.589 37.6953 98.6241 34.5702 89.4375C31.3923 80.0788 31.3923 69.9329 34.5702 60.5742C36.7948 54.0142 40.4722 48.0414 45.328 43.1016C50.885 37.3447 57.9202 33.2296 65.6619 31.2079C73.4036 29.1862 81.5526 29.3359 89.2148 31.6406C95.2003 33.478 100.674 36.6883 105.199 41.0156C109.754 36.4844 114.301 31.9414 118.84 27.3867C121.184 24.9375 123.738 22.6055 126.047 20.0976C119.139 13.6696 111.031 8.66785 102.187 5.3789C86.0824 -0.468876 68.4606 -0.626029 52.2538 4.93359Z" fill="white"/>
<path d="M52.2539 4.93367C68.4593 -0.629728 86.0811 -0.476712 102.187 5.36726C111.033 8.67855 119.137 13.7044 126.035 20.1563C123.691 22.6641 121.219 25.0079 118.828 27.4454C114.281 31.9844 109.738 36.5079 105.199 41.0157C100.674 36.6884 95.2004 33.4781 89.2148 31.6407C81.5552 29.3279 73.4065 29.1695 65.6627 31.183C57.919 33.1964 50.8794 37.3039 45.3164 43.0548C40.4605 47.9946 36.7831 53.9675 34.5586 60.5274L10.2656 41.7188C18.961 24.4754 34.0166 11.2855 52.2539 4.93367Z" fill="#E33629"/>
<path d="M3.82028 60.3516C5.126 53.8804 7.29376 47.6136 10.2656 41.7188L34.5586 60.5742C31.3806 69.9329 31.3806 80.0788 34.5586 89.4375C26.4648 95.6875 18.3672 101.969 10.2656 108.281C2.82595 93.4724 0.55699 76.5996 3.82028 60.3516Z" fill="#F8BD00"/>
<path d="M76.4884 61.1133H146.238C148.624 74.2023 147.979 87.6641 144.352 100.465C141.015 112.236 134.532 122.875 125.602 131.238C117.762 125.121 109.887 119.051 102.047 112.934C105.934 110.312 109.251 106.932 111.801 102.998C114.35 99.0629 116.079 94.654 116.883 90.0352H76.4884C76.4766 80.4023 76.4884 70.7578 76.4884 61.1133Z" fill="#587DBD"/>
<path d="M10.2539 108.281C18.3555 102.031 26.4531 95.75 34.5469 89.4375C37.6782 98.6273 43.6337 106.593 51.5625 112.195C56.5079 115.691 62.1273 118.117 68.0625 119.32C73.9108 120.408 79.9095 120.408 85.7578 119.32C91.589 118.333 97.1494 116.138 102.082 112.875C109.922 118.992 117.797 125.063 125.637 131.18C117.057 138.981 106.599 144.42 95.2852 146.965C82.7978 149.9 69.7843 149.76 57.3633 146.555C47.5395 143.932 38.3634 139.308 30.4102 132.973C21.9921 126.289 15.1167 117.867 10.2539 108.281Z" fill="#319F43"/>
</svg>
